<?xml version="1.0" encoding="utf-8"?>
<svg id="Capa_1" enable-background="new 0 0 512 512" height="512" viewBox="0 0 512 512" width="512" xmlns="http://www.w3.org/2000/svg"><g><path d="m225 303c-8.291 0-15 6.709-15 15s6.709 15 15 15h167v-30z" fill="#ff6c6c"/><path d="m343.001 165.128c-8.145 0-14.824-6.504-15-14.678l-.938-42.788-31.597 16.67c-9.879 5.191-21.751-1.813-22.002-12.949l-1.464-67.06c-.176-8.276 6.387-15.132 14.678-15.322 8.394.483 15.146 6.401 15.322 14.678l.937 42.788 31.597-16.67c4.6-2.417 10.137-2.3 14.604.337 4.482 2.637 7.28 7.412 7.397 12.612l1.465 67.061c.176 8.276-6.387 15.132-14.678 15.322-.101-.001-.218-.001-.321-.001z" fill="#ffccb3"/><path d="m428.621 158.786c-4.849-6.724-3.311-16.099 3.413-20.933l34.761-25.005-31.641-16.597c-4.6-2.417-7.632-7.046-7.983-12.231-.366-5.186 1.978-10.195 6.196-13.228l54.876-38.139c6.738-4.805 16.113-3.311 20.933 3.413 4.834 6.724 3.311 16.099-3.413 20.933l-35.174 23.959 31.641 16.597c4.6 2.417 7.632 7.046 7.983 12.231.366 5.186-1.978 10.195-6.196 13.228l-54.463 39.185c-6.76 4.855-16.112 3.287-20.933-3.413z" fill="#ffccb3"/><path d="m407 303h-15c-16.569 0-30 13.431-30 30v135c0 8.284 6.716 15 15 15h15 45c8.284 0 15-6.716 15-15v-120c0-24.853-20.147-45-45-45z" fill="#ff6c6c"/><path d="m452 468v-120c0-24.853-20.147-45-45-45h-15v180h45c8.284 0 15-6.717 15-15z" fill="#e63950"/><circle cx="392" cy="243" fill="#fdc" r="60"/><path d="m452 243c0-33.091-26.909-60-60-60v120c33.091 0 60-26.91 60-60z" fill="#ffccb3"/><circle cx="90" cy="243" fill="#c86e59" r="60"/><path d="m150 243c0-33.091-26.909-60-60-60v120c33.091 0 60-26.91 60-60z" fill="#a34f3e"/><path d="m135 303h-45-45c-24.814 0-45 20.186-45 45v120c0 8.291 6.709 15 15 15h75 74.985c4.146 0 7.896-1.685 10.62-4.395 2.71-2.725 4.395-6.475 4.395-10.62v-119.985c0-24.815-20.186-45-45-45z" fill="#65d6a9"/><path d="m175.605 478.605c2.71-2.725 4.395-6.475 4.395-10.62v-119.985c0-24.814-20.186-45-45-45h-45v180h74.985c4.146 0 7.896-1.685 10.62-4.395z" fill="#26bfa6"/></g></svg>
