<?xml version="1.0" encoding="utf-8"?>
<svg id="Layer_1" enable-background="new 0 0 256 256" height="512" viewBox="0 0 256 256" width="512" xmlns="http://www.w3.org/2000/svg"><path d="m50.6 26.593c-3.751 3.751-6.709 7.993-8.895 12.514h172.59c-2.187-4.521-5.144-8.763-8.895-12.514-17.986-17.986-47.146-17.986-65.132 0l-12.268 12.267-12.268-12.268c-17.985-17.985-47.146-17.985-65.132.001z" fill="#ff4397"/><path d="m205.4 26.593c-10.104-10.104-23.733-14.53-36.927-13.283-.378.049-.752.097-1.116.14 9.9 1.178 19.493 5.553 27.09 13.15 3.749 3.749 6.705 7.988 8.891 12.506h10.958c-2.187-4.52-5.145-8.762-8.896-12.513z" fill="#e12579"/><path d="m50.6 26.593c10.104-10.104 23.733-14.53 36.927-13.283.378.049.752.097 1.116.14-9.9 1.178-19.493 5.553-27.09 13.15-3.749 3.749-6.705 7.988-8.891 12.506h-10.957c2.186-4.52 5.144-8.762 8.895-12.513z" fill="#ff61b5"/><path d="m37.506 65.11h180.988c1.14-8.799-.259-17.858-4.199-26.003h-172.59c-3.939 8.145-5.339 17.204-4.199 26.003z" fill="#f9934e"/><path d="m214.295 39.107h-10.958c3.941 8.145 5.342 17.204 4.202 26.003h10.955c1.14-8.798-.26-17.858-4.199-26.003z" fill="#db7530"/><path d="m41.705 39.107h10.958c-3.941 8.145-5.342 17.204-4.202 26.003h-10.955c-1.14-8.798.26-17.858 4.199-26.003z" fill="#f9b16c"/><path d="m50.02 91.114h155.96c7.114-7.375 11.286-16.532 12.514-26.004h-180.988c1.228 9.472 5.4 18.629 12.514 26.004z" fill="#fcc24c"/><path d="m205.98 91.114c7.114-7.375 11.286-16.532 12.514-26.004h-10.955c-1.227 9.472-5.398 18.629-12.512 26.004z" fill="#dea42e"/><path d="m50.02 91.114c-7.114-7.375-11.286-16.532-12.514-26.004h10.955c1.227 9.472 5.398 18.629 12.512 26.004z" fill="#fce06a"/><path d="m50.02 91.114c.195.202.381.411.581.61l25.393 25.393h104.014l25.392-25.393c.2-.2.385-.408.581-.61z" fill="#7bac51"/><path d="m180.007 117.117 25.393-25.393c.2-.2.385-.408.581-.61h-10.954c-.195.202-.381.411-.58.61l-21.802 25.393z" fill="#5d8e33"/><path d="m75.993 117.117-25.393-25.393c-.2-.2-.385-.408-.581-.61h10.954c.195.202.381.411.58.61l21.802 25.393z" fill="#99ca6f"/><path d="m101.997 143.121h52.006l26.004-26.004h-104.014z" fill="#526faa"/><path d="m154.003 143.121 26.004-26.004h-7.363l-22.326 26.004z" fill="#34518c"/><path d="m101.997 143.121-26.004-26.004h7.363l22.326 26.004z" fill="#708dc8"/><path d="m101.996 143.12 26.004 26.004 26.003-26.004z" fill="#8852a8"/><path d="m150.318 143.12-22.318 25.994.021-.011 25.982-25.983z" fill="#6a348a"/><path d="m105.682 143.12 22.318 25.994-.021-.011-25.983-25.983z" fill="#a670c6"/><g fill="#690589"><path d="m214.295 41.106h-172.59c-.689 0-1.328-.354-1.694-.938-.366-.583-.406-1.313-.106-1.933 2.348-4.854 5.471-9.247 9.282-13.058 18.736-18.735 49.224-18.736 67.96 0l10.853 10.855 10.854-10.854c18.736-18.736 49.224-18.737 67.96 0 3.811 3.811 6.934 8.204 9.282 13.057.3.62.26 1.35-.106 1.933-.367.584-1.007.938-1.695.938zm-81.713-4h78.392c-1.92-3.323-4.262-6.374-6.988-9.1-17.177-17.177-45.125-17.178-62.304 0zm-87.556 0h78.392l-9.1-9.1c-17.178-17.176-45.126-17.176-62.304 0-2.726 2.726-5.068 5.778-6.988 9.1zm5.575-10.514h.01z"/><path d="m218.494 67.11h-180.988c-1.005 0-1.855-.746-1.983-1.743-1.208-9.324.308-18.706 4.382-27.131.334-.691 1.034-1.129 1.801-1.129h172.59c.767 0 1.467.438 1.801 1.129 4.074 8.425 5.59 17.807 4.382 27.131-.13.997-.98 1.743-1.985 1.743zm-179.196-4h177.404c.68-7.558-.582-15.106-3.681-22.004h-170.043c-3.098 6.898-4.36 14.446-3.68 22.004z"/><path d="m205.98 93.114h-155.961c-.543 0-1.062-.221-1.439-.611-7.211-7.475-11.726-16.858-13.058-27.136-.074-.57.102-1.145.481-1.577s.927-.68 1.502-.68h180.988c.575 0 1.123.247 1.502.68.38.432.556 1.007.481 1.578-1.333 10.278-5.849 19.662-13.058 27.135-.375.39-.895.611-1.438.611zm-155.1-4h154.24c5.752-6.189 9.537-13.742 11.039-22.004h-176.318c1.501 8.261 5.286 15.814 11.039 22.004z"/><path d="m180.007 119.117h-104.014c-.53 0-1.039-.211-1.414-.586l-25.393-25.393c-.134-.133-.264-.271-.393-.41l-.213-.225c-.558-.577-.716-1.432-.402-2.171.313-.739 1.038-1.219 1.841-1.219h155.961c.803 0 1.527.48 1.841 1.219.313.739.155 1.594-.402 2.171l-.213.225c-.129.138-.259.276-.395.412l-25.391 25.391c-.374.375-.883.586-1.413.586zm-103.186-4h102.357l22.003-22.003h-146.363z"/><path d="m154.003 145.121h-52.007c-.53 0-1.039-.211-1.414-.586l-26.003-26.003c-.572-.572-.743-1.432-.434-2.179.31-.748 1.039-1.235 1.848-1.235h104.014c.809 0 1.538.487 1.848 1.235.31.747.139 1.607-.434 2.179l-26.004 26.003c-.375.375-.884.586-1.414.586zm-51.179-4h50.351l22.004-22.003h-94.358z"/><path d="m128 171.124c-.512 0-1.023-.195-1.414-.586l-26.004-26.003c-.572-.572-.743-1.432-.434-2.179.31-.748 1.039-1.235 1.848-1.235h52.008c.809 0 1.538.487 1.848 1.235.31.747.139 1.607-.434 2.179l-26.004 26.003c-.391.391-.902.586-1.414.586zm-21.176-26.003 21.176 21.174 21.176-21.175h-42.352z"/></g><path d="m128 242.897v-41.161c0-8.276-3.287-16.212-9.139-22.064l-39.603-39.603c-4.905-4.905-12.857-4.905-17.761 0-4.904 4.905-4.904 12.857 0 17.761l16.269 16.269c2.588 2.587 2.588 6.783 0 9.37-2.588 2.588-6.783 2.588-9.37 0l-34.617-34.617c-2.341-2.341-3.656-5.515-3.656-8.826v-38.023c0-7.214-5.848-13.061-13.061-13.061-7.214-.001-13.062 5.847-13.062 13.061v58.321c0 3.31 1.315 6.485 3.656 8.826l55.649 55.649v18.098z" fill="#ff9f70"/><path d="m128 242.897v-41.161c0-8.276 3.288-16.212 9.139-22.064l39.603-39.603c4.905-4.905 12.856-4.905 17.761 0 4.904 4.905 4.904 12.857 0 17.761l-16.269 16.269c-2.587 2.587-2.587 6.783 0 9.37 2.587 2.588 6.783 2.588 9.37 0l34.618-34.617c2.341-2.341 3.656-5.515 3.656-8.826v-38.023c0-7.214 5.848-13.061 13.061-13.061 7.214 0 13.061 5.848 13.061 13.061v58.321c0 3.31-1.315 6.485-3.656 8.826l-55.649 55.649v18.098z" fill="#ff9f70"/><path d="m241.701 89.24c.192.891.299 1.814.299 2.763v62.321c0 3.31-1.315 6.485-3.656 8.826l-52.72 52.72c-1.875 1.875-2.929 4.419-2.929 7.071v19.956h10v-18.098l55.649-55.649c2.341-2.341 3.656-5.515 3.656-8.826v-58.321c0-6.265-4.413-11.494-10.299-12.763z" fill="#e18152"/><path d="m14.299 89.24c-.192.891-.299 1.814-.299 2.763v62.321c0 3.31 1.315 6.485 3.656 8.826l52.72 52.72c1.875 1.875 2.929 4.419 2.929 7.071v19.956h-10v-18.098l-55.649-55.649c-2.341-2.341-3.656-5.515-3.656-8.826v-58.321c0-6.265 4.413-11.494 10.299-12.763z" fill="#ffbd8e"/><path d="m192.695 244.897h-64.695c-1.104 0-2-.896-2-2v-41.161c0-8.87 3.454-17.207 9.726-23.479l39.602-39.602c2.749-2.75 6.405-4.265 10.294-4.265 3.89 0 7.546 1.515 10.295 4.265 5.677 5.676 5.677 14.913 0 20.589l-16.27 16.27c-1.803 1.804-1.803 4.738 0 6.542 1.805 1.803 4.738 1.803 6.543-.001l34.617-34.617c1.979-1.979 3.069-4.611 3.069-7.412v-38.023c0-8.305 6.757-15.062 15.062-15.062s15.061 6.756 15.061 15.062v58.321c0 3.867-1.506 7.504-4.241 10.24l-55.064 55.063v17.27c.001 1.104-.894 2-1.999 2zm-62.695-4h60.695v-16.098c0-.53.211-1.039.586-1.414l55.649-55.649c1.98-1.98 3.069-4.612 3.069-7.412v-58.321c0-6.099-4.962-11.062-11.061-11.062-6.1 0-11.062 4.962-11.062 11.062v38.023c0 3.869-1.506 7.506-4.241 10.24l-34.617 34.617c-1.629 1.629-3.796 2.526-6.1 2.526s-4.47-.897-6.099-2.526c-3.363-3.363-3.364-8.835-.001-12.198l16.27-16.27c4.117-4.117 4.117-10.815 0-14.933-1.994-1.994-4.645-3.093-7.467-3.093-2.82 0-5.472 1.099-7.466 3.093l-39.603 39.603c-5.516 5.516-8.554 12.85-8.554 20.65v39.162z" fill="#690589"/><path d="m128 244.897h-64.695c-1.104 0-2-.896-2-2v-17.27l-55.064-55.063c-2.735-2.736-4.241-6.373-4.241-10.24v-58.321c0-8.305 6.757-15.062 15.061-15.062s15.062 6.756 15.062 15.062v38.023c0 2.8 1.09 5.433 3.069 7.411l34.617 34.618c.874.873 2.036 1.354 3.271 1.354s2.396-.481 3.271-1.354c1.804-1.804 1.804-4.738.001-6.542l-16.269-16.27c-5.677-5.676-5.677-14.913 0-20.589 2.749-2.75 6.405-4.265 10.295-4.265 3.889 0 7.545 1.515 10.294 4.265l39.603 39.602c6.271 6.271 9.726 14.609 9.726 23.479v41.161c-.001 1.105-.896 2.001-2.001 2.001zm-62.695-4h60.695v-39.161c0-7.801-3.038-15.135-8.554-20.65l-39.603-39.603c-1.994-1.994-4.646-3.093-7.466-3.093-2.821 0-5.473 1.099-7.467 3.093-4.117 4.117-4.117 10.815 0 14.933l16.27 16.27c3.362 3.363 3.362 8.835 0 12.198-3.363 3.363-8.836 3.363-12.199.001l-34.617-34.618c-2.735-2.734-4.241-6.371-4.241-10.24v-38.023c0-6.099-4.962-11.062-11.062-11.062s-11.061 4.962-11.061 11.061v58.321c0 2.799 1.09 5.431 3.069 7.412l55.649 55.649c.375.375.586.884.586 1.414v16.098z" fill="#690589"/><path d="m54.316 199.645c-.512 0-1.023-.195-1.414-.586l-12-12c-.781-.781-.781-2.047 0-2.828s2.047-.781 2.828 0l12 12c.781.781.781 2.047 0 2.828-.39.391-.902.586-1.414.586z" fill="#690589"/></svg>
