<?xml version="1.0" encoding="utf-8"?>
<svg id="Layer_1" enable-background="new 0 0 256 256" height="512" viewBox="0 0 256 256" width="512" xmlns="http://www.w3.org/2000/svg"><path d="m189.461 4 .189 22.921h13.676l-29.867 29.869c-7.102-5.102-14.957-8.692-23.12-10.798-.093-.024-.186-.046-.28-.07-.953-.242-1.909-.463-2.87-.664-.211-.044-.422-.088-.633-.13-.887-.177-1.776-.335-2.667-.478-.229-.037-.457-.076-.687-.111-1-.149-2.002-.277-3.006-.383-.099-.01-.197-.025-.296-.035-2.319-.235-4.648-.351-6.976-.354-.026 0-.051-.002-.077-.002-.071 0-.141.005-.212.005-1.044.003-2.087.03-3.13.079-.187.009-.373.02-.56.031-.973.054-1.944.128-2.914.222-.171.017-.342.032-.513.05-1.069.112-2.136.247-3.2.408-.03.004-.06.008-.09.013-12.966 1.981-25.47 7.62-35.842 16.915l-8.371-8.274 12.542-12.544-15.022-15.023-12.544 12.545-12.639-12.639h12.859l.178-21.553h-49.613l.417 49.435h21.244l-.108-12.86 12.639 12.639-12.545 12.545 15.022 15.022 12.545-12.544 9.875 9.764c-2.099 3.568-3.874 7.275-5.287 11.09-.076.204-.155.406-.23.61-.237.659-.457 1.321-.673 1.986-.168.509-.336 1.016-.492 1.529-.11.365-.209.732-.313 1.098-.229.802-.451 1.606-.652 2.419-.016.066-.03.133-.046.199-1.29 5.291-1.99 10.812-1.99 16.495 0 10.396 2.303 20.259 6.404 29.126.042.09.082.181.124.271.401.858.821 1.706 1.256 2.545.097.187.189.376.287.563.4.755.818 1.497 1.245 2.235.138.239.266.481.407.719.528.889 1.074 1.765 1.64 2.627.347.53.717 1.049 1.08 1.572.245.352.483.708.734 1.055.38.526.778 1.044 1.174 1.562.259.338.517.677.782 1.011.396.498.804.99 1.216 1.48.295.35.593.697.894 1.042.405.462.813.921 1.232 1.375.342.37.692.733 1.041 1.096.298.309.581.627.886.932.111.111.228.213.34.323.403.398.819.783 1.233 1.171.631.593 1.268 1.173 1.916 1.738.519.453 1.035.907 1.567 1.345.393.324.796.63 1.194.944.471.371.942.742 1.423 1.101.379.283.763.554 1.146.828.538.385 1.08.765 1.63 1.135.324.218.65.432.976.643.675.439 1.359.864 2.05 1.279.203.121.404.245.608.364 7.234 4.25 15.292 7.244 23.88 8.65v20.323h-18.134v22.593h18.134v26.925h22.593v-26.923h18.134v-22.593h-18.134v-20.324c8.588-1.407 16.646-4.401 23.88-8.65.204-.119.405-.242.608-.364.691-.415 1.374-.841 2.049-1.279.327-.212.652-.426.977-.643.55-.37 1.092-.75 1.63-1.135.383-.274.767-.546 1.146-.828.481-.359.952-.73 1.423-1.101.399-.314.801-.62 1.194-.944.532-.437 1.049-.892 1.567-1.345.647-.565 1.285-1.145 1.916-1.738.413-.388.829-.773 1.233-1.171.112-.11.229-.212.34-.323.375-.375.729-.763 1.094-1.145.228-.239.459-.474.684-.716.487-.524.959-1.056 1.426-1.591.201-.23.403-.457.601-.689.472-.554.93-1.116 1.381-1.681.183-.229.367-.457.547-.688.441-.566.869-1.139 1.29-1.715.187-.255.373-.511.556-.77.389-.549.769-1.103 1.14-1.66.212-.318.422-.638.63-.96.318-.495.63-.994.935-1.496.257-.422.508-.847.756-1.275.232-.402.461-.804.685-1.209.313-.565.616-1.136.914-1.71.137-.267.275-.533.409-.801.374-.745.733-1.499 1.081-2.259.042-.093.085-.186.127-.279 3.94-8.722 6.149-18.388 6.149-28.565 0-6.43-.894-12.652-2.532-18.568-.004-.015-.008-.029-.012-.043-.258-.928-.528-1.85-.823-2.762-.082-.257-.175-.512-.261-.769-.231-.686-.459-1.374-.71-2.051-2.125-5.773-5.034-11.32-8.734-16.471l29.868-29.867-.115 13.675h22.593l.442-52.574zm-16.029 133.223c-.022.037-.043.075-.065.113-.362.613-.742 1.218-1.134 1.817-.038.058-.074.117-.112.175-.403.61-.823 1.213-1.258 1.807-.024.033-.047.068-.072.101-1.394 1.896-2.948 3.712-4.662 5.426-18.352 18.352-48.214 18.352-66.566 0-1.716-1.716-3.271-3.533-4.666-5.431-.019-.025-.036-.051-.055-.077-.441-.603-.867-1.213-1.276-1.832-.033-.05-.064-.102-.097-.152-.398-.607-.783-1.221-1.15-1.843-.016-.028-.032-.056-.048-.083-6.214-10.569-7.946-23.061-5.209-34.708.039-.166.074-.333.115-.498.103-.42.222-.836.337-1.253.107-.384.21-.769.327-1.149.062-.203.131-.404.195-.606 6.098-18.932 23.875-32.671 44.808-32.671 20.946 0 38.733 13.756 44.82 32.707.059.185.122.369.179.555.122.398.231.802.343 1.204.11.399.224.797.323 1.198.046.185.085.373.129.559 2.722 11.625.99 24.089-5.206 34.641z" fill="#ff4397"/><g fill="#ff61b5"><path d="m103.669 173.51c-.204-.119-.405-.242-.608-.364-.691-.415-1.374-.841-2.05-1.279-.327-.212-.652-.426-.976-.643-.55-.37-1.092-.75-1.63-1.135-.384-.274-.767-.546-1.146-.828-.481-.359-.952-.73-1.423-1.101-.399-.313-.801-.62-1.194-.943-.532-.437-1.049-.892-1.567-1.345-.611-.533-1.213-1.076-1.803-1.632-.45-.425-.905-.843-1.345-1.278-.112-.11-.229-.212-.34-.323-.305-.305-.588-.623-.886-.932-.35-.363-.7-.725-1.041-1.096-.419-.454-.827-.913-1.232-1.375-.302-.345-.599-.692-.894-1.042-.412-.49-.819-.981-1.216-1.48-.265-.333-.523-.673-.782-1.011-.397-.518-.794-1.035-1.175-1.562-.251-.347-.49-.703-.734-1.055-.363-.523-.733-1.042-1.08-1.572-.566-.863-1.112-1.739-1.64-2.627-.141-.238-.269-.48-.407-.719-.426-.738-.845-1.48-1.245-2.235-.099-.187-.19-.376-.287-.563-.435-.839-.855-1.687-1.256-2.545-.042-.09-.082-.181-.124-.271-4.101-8.867-6.404-18.73-6.404-29.126 0-5.683.7-11.203 1.99-16.495.016-.066.03-.133.046-.199.201-.813.422-1.618.652-2.419.104-.366.203-.733.313-1.098.156-.513.325-1.021.492-1.529.217-.664.437-1.327.673-1.986.074-.205.154-.407.23-.61.739-1.996 1.577-3.961 2.509-5.893 1.16-2.405-.552-5.196-3.222-5.196-2.099 3.568-3.874 7.275-5.287 11.09-.076.204-.155.406-.23.61-.237.659-.457 1.321-.673 1.986-.167.509-.336 1.016-.492 1.529-.11.365-.209.732-.313 1.098-.229.802-.451 1.606-.652 2.419-.016.066-.03.133-.046.199-1.29 5.291-1.99 10.812-1.99 16.495 0 10.396 2.303 20.259 6.404 29.126.042.09.082.181.124.271.401.858.821 1.706 1.256 2.545.097.187.189.376.287.563.4.755.818 1.497 1.245 2.235.138.239.266.481.407.719.528.889 1.074 1.765 1.64 2.627.347.53.717 1.049 1.08 1.572.245.352.483.708.734 1.055.38.526.778 1.044 1.174 1.562.259.338.517.677.782 1.011.396.498.804.99 1.216 1.48.295.35.593.697.894 1.042.405.462.813.921 1.232 1.375.342.37.692.733 1.041 1.096.298.309.581.627.886.932.111.111.228.213.34.323.44.435.896.853 1.345 1.278.59.556 1.192 1.099 1.803 1.632.519.453 1.035.907 1.567 1.345.393.324.796.63 1.194.943.471.371.942.742 1.423 1.101.379.283.763.554 1.146.828.538.385 1.08.765 1.63 1.135.324.218.65.432.976.643.675.439 1.359.864 2.05 1.279.203.121.404.245.608.364 7.234 4.25 15.292 7.244 23.88 8.65l1.457-.921c-6.89-1.614-13.394-4.24-19.336-7.73z"/><path d="m103.414 202.483h6v22.593h-6z"/><path d="m121.548 225.077v26.923h6v-21.923c0-2.761-2.239-5-5-5z"/><path d="m19.776 4h-6l.417 49.435h5.999z"/><path d="m41.423 65.759 9.009-9.009c1.953-1.953 1.953-5.118 0-7.071l-9.226-9.226c-1.64-1.64-4.314-1.592-5.895.105l12.656 12.657-12.544 12.544 15.022 15.022 3-3z"/></g><path d="m199.963 94.817c-.258-.928-.528-1.85-.823-2.762-.082-.257-.175-.512-.261-.769-.231-.686-.459-1.374-.71-2.051-2.125-5.773-5.034-11.32-8.734-16.471l29.868-29.868c-1.554-1.712-4.223-1.777-5.858-.142l-27.096 27.096c-1.671 1.671-1.916 4.266-.652 6.263 2.646 4.179 4.802 8.58 6.473 13.121.251.677.479 1.365.71 2.051.085.257.178.511.261.769.295.912.565 1.834.823 2.762.004.014.008.029.012.043 1.639 5.916 2.532 12.138 2.532 18.567 0 10.177-2.208 19.843-6.149 28.565-.042.093-.085.186-.127.279-.348.76-.707 1.514-1.081 2.259-.134.268-.271.534-.409.801-.297.574-.601 1.145-.914 1.71-.223.405-.452.808-.685 1.209-.248.428-.5.853-.756 1.275-.305.502-.616 1-.935 1.496-.207.322-.417.642-.63.96-.371.558-.751 1.111-1.14 1.66-.183.258-.369.514-.556.77-.421.577-.849 1.149-1.29 1.715-.18.232-.364.46-.547.689-.452.565-.91 1.127-1.381 1.681-.198.232-.4.46-.601.689-.468.535-.939 1.068-1.426 1.591-.225.242-.456.478-.684.716-.365.382-.719.77-1.094 1.145-.111.111-.228.213-.34.323-.441.435-.897.854-1.347 1.279-.589.556-1.191 1.098-1.801 1.631-.518.453-1.035.907-1.567 1.345-.393.324-.796.63-1.194.943-.471.371-.942.742-1.423 1.101-.379.283-.763.554-1.146.828-.538.385-1.08.765-1.63 1.135-.324.218-.65.432-.977.643-.675.439-1.359.864-2.049 1.279-.203.121-.404.245-.608.364-5.76 3.384-12.048 5.955-18.704 7.579l1.098 1.02c8.485-1.425 16.449-4.395 23.606-8.599.204-.119.405-.242.608-.364.691-.415 1.374-.841 2.049-1.279.327-.212.652-.426.977-.643.549-.37 1.092-.75 1.63-1.135.383-.274.767-.546 1.146-.828.481-.359.952-.73 1.423-1.101.399-.313.801-.62 1.194-.943.532-.437 1.048-.892 1.567-1.345.61-.533 1.212-1.075 1.801-1.631.451-.425.906-.844 1.347-1.279.112-.11.229-.212.34-.323.375-.375.729-.763 1.094-1.145.228-.239.459-.474.684-.716.487-.524.959-1.056 1.426-1.591.201-.23.403-.457.601-.689.472-.554.93-1.116 1.381-1.681.183-.229.367-.457.547-.689.441-.566.869-1.138 1.29-1.715.187-.255.373-.511.556-.77.389-.549.769-1.103 1.14-1.66.213-.318.422-.638.63-.96.318-.495.63-.994.935-1.496.257-.422.508-.847.756-1.275.232-.401.461-.804.685-1.209.313-.565.616-1.136.914-1.71.137-.267.275-.533.409-.801.374-.745.733-1.499 1.081-2.259.042-.093.085-.186.127-.279 3.94-8.722 6.149-18.388 6.149-28.565 0-6.43-.894-12.652-2.532-18.567-.005-.014-.009-.028-.013-.042z" fill="#e12579"/><path d="m236.224 4-.443 52.573h6l.443-52.573z" fill="#e12579"/><path d="m156.275 202.483h6v22.593h-6z" fill="#e12579"/><path d="m138.142 252h6v-26.923h-1c-2.761 0-5 2.239-5 5z" fill="#e12579"/><path d="m144.142 254h-22.593c-1.104 0-2-.895-2-2v-24.923h-16.134c-1.104 0-2-.896-2-2v-22.593c0-1.104.896-2 2-2h16.134v-16.645c-8.057-1.519-15.751-4.409-22.893-8.605l-.62-.371c-.716-.43-1.419-.868-2.113-1.319-.332-.215-.666-.436-1-.659-.569-.383-1.127-.775-1.681-1.171l-.104-.073c-.36-.256-.72-.513-1.075-.778-.486-.363-.962-.737-1.438-1.112l-.358-.28c-.3-.233-.6-.467-.895-.71-.491-.404-.968-.821-1.446-1.238l-.167-.146c-.666-.581-1.322-1.178-1.97-1.788l-.264-.247c-.338-.316-.675-.633-1.005-.958l-.115-.109c-.08-.074-.159-.148-.237-.226-.195-.195-.386-.399-.577-.603l-.332-.352c-.381-.395-.73-.757-1.071-1.127-.431-.467-.852-.939-1.268-1.415-.31-.354-.616-.711-.919-1.072-.424-.503-.843-1.009-1.251-1.522-.232-.291-.459-.588-.686-.884l-.119-.155c-.433-.564-.828-1.081-1.208-1.606-.181-.251-.356-.505-.532-.76l-.459-.662c-.297-.425-.593-.85-.875-1.281-.571-.87-1.139-1.779-1.686-2.701-.091-.154-.176-.306-.26-.457l-.16-.285c-.438-.757-.868-1.522-1.279-2.297l-.297-.581c-.446-.862-.878-1.734-1.291-2.617l-.129-.283c-4.37-9.449-6.587-19.531-6.587-29.961 0-5.688.689-11.397 2.047-16.969l.05-.214c.204-.828.432-1.655.667-2.48l.087-.31c.076-.272.152-.545.234-.816.156-.512.321-1.012.486-1.513.242-.743.469-1.425.713-2.104l.238-.633c1.259-3.399 2.824-6.775 4.659-10.05l-7.366-7.283-11.137 11.14c-.781.781-2.048.781-2.828 0l-15.023-15.023c-.781-.781-.781-2.047 0-2.828l11.13-11.131-7.769-7.77.067 7.974c.004.533-.204 1.046-.58 1.425-.375.379-.887.592-1.42.592h-21.244c-1.098 0-1.991-.885-2-1.983l-.417-49.435c-.004-.534.204-1.046.58-1.425.375-.379.887-.592 1.42-.592h49.613c.533 0 1.044.213 1.42.592.376.378.585.892.58 1.425l-.178 21.553c-.009 1.098-.902 1.983-2 1.983h-8.03l7.81 7.81 11.13-11.13c.78-.781 2.048-.781 2.828 0l15.023 15.023c.375.375.586.884.586 1.414s-.211 1.039-.586 1.414l-11.122 11.122 5.619 5.554c10.093-8.579 22.311-14.155 35.455-16.164.003 0 .097-.014.101-.014 1.053-.16 2.16-.301 3.283-.419l.529-.051c.998-.097 1.996-.173 2.996-.229l.577-.031c1.085-.052 2.168-.079 3.218-.082l.218-.005c.025 0 .089.002.114.003 2.371.003 4.784.125 7.141.364l.301.035c1.029.108 2.069.241 3.097.395l.707.113c.917.147 1.831.31 2.743.492l.654.135c.984.206 1.969.434 2.949.683l.287.072c8.064 2.081 15.589 5.487 22.394 10.133l25.268-25.267h-8.848c-1.098 0-1.991-.885-2-1.983l-.189-22.921c-.004-.533.204-1.046.58-1.425.373-.381.885-.594 1.418-.594h52.762c.533 0 1.045.213 1.42.592.376.379.585.892.58 1.425l-.442 52.573c-.01 1.098-.902 1.983-2 1.983h-22.594c-.533 0-1.045-.213-1.42-.592-.376-.379-.585-.892-.58-1.425l.074-8.789-25.226 25.225c3.295 4.825 5.986 10.049 8.011 15.553.23.62.444 1.255.657 1.891l.17.499c.059.171.117.341.172.512.301.931.58 1.879.845 2.834 1.741 6.287 2.618 12.714 2.618 19.146 0 10.208-2.129 20.096-6.327 29.388l-.113.249c-.373.819-.743 1.594-1.128 2.362l-.417.816c-.31.599-.622 1.185-.943 1.766-.23.415-.464.829-.703 1.243-.257.442-.516.879-.78 1.313-.312.514-.632 1.027-.96 1.537-.213.332-.429.66-.646.987-.384.575-.774 1.144-1.175 1.709-.189.268-.381.531-.574.794-.431.59-.871 1.18-1.326 1.763-.173.223-.351.445-.529.667-.496.621-.968 1.199-1.452 1.769l-.617.708c-.481.552-.968 1.1-1.469 1.639-.152.163-.308.325-.464.486l-.601.632c-.251.267-.503.534-.764.795-.077.077-.156.151-.235.225l-.118.111c-.328.325-.669.644-1.01.964l-.254.238c-.649.611-1.306 1.208-1.972 1.788l-.096.084c-.5.438-1.001.875-1.514 1.298-.292.24-.587.47-.881.699l-.349.272c-.519.409-.986.776-1.462 1.132-.356.266-.716.522-1.076.778l-.107.076c-.55.393-1.107.785-1.673 1.165-.337.226-.672.446-1.008.664-.69.449-1.394.886-2.105 1.314l-.633.378c-7.135 4.191-14.828 7.082-22.885 8.601v16.645h16.134c1.105 0 2 .896 2 2v22.593c0 1.104-.895 2-2 2h-16.134v24.925c-.001 1.105-.897 2-2.001 2zm-20.594-4h18.593v-24.923c0-1.105.895-2 2-2h16.134v-18.593h-16.134c-1.105 0-2-.895-2-2v-20.324c0-.98.71-1.816 1.677-1.974 8.179-1.34 15.98-4.166 23.19-8.402l.593-.354c.668-.402 1.332-.815 1.987-1.241.322-.208.638-.416.953-.628.53-.357 1.057-.726 1.579-1.1l.111-.08c.336-.239.672-.478 1.003-.726.448-.335.889-.682 1.33-1.028l.415-.325c.268-.208.535-.417.799-.634.48-.396.951-.808 1.421-1.219l.099-.085c.631-.55 1.25-1.115 1.863-1.69l.257-.242c.316-.296.632-.591.939-.895l.332-.314c.231-.232.455-.47.678-.707l.635-.667c.139-.144.277-.288.414-.434.474-.509.931-1.026 1.385-1.546l.586-.671c.457-.537.901-1.082 1.34-1.631.202-.253.368-.46.531-.669.429-.551.844-1.106 1.253-1.666.184-.251.363-.499.542-.749.377-.532.745-1.07 1.107-1.611.205-.308.409-.619.611-.932.308-.48.61-.964.906-1.452.251-.412.496-.825.736-1.24.225-.388.447-.779.664-1.172.305-.551.6-1.106.89-1.665l.394-.773c.364-.727.713-1.458 1.05-2.196l.115-.254c3.972-8.79 5.98-18.123 5.98-27.76 0-6.072-.828-12.139-2.461-18.034-.262-.942-.523-1.837-.811-2.723-.047-.147-.095-.287-.143-.425l-.182-.538c-.199-.594-.398-1.188-.616-1.774-2.1-5.706-4.953-11.087-8.484-16.002-.572-.795-.483-1.888.21-2.581l29.868-29.867c.575-.575 1.438-.743 2.188-.431.749.314 1.233 1.05 1.226 1.861l-.099 11.659h18.594l.411-48.573h-48.729l.156 18.921h11.692c.809 0 1.538.487 1.848 1.235.31.747.139 1.607-.434 2.179l-29.868 29.868c-.691.692-1.784.782-2.581.21-6.763-4.858-14.317-8.386-22.453-10.486l-.278-.07c-.918-.232-1.848-.448-2.78-.643l-.618-.127c-.859-.172-1.724-.326-2.589-.464l-.667-.107c-.972-.145-1.945-.27-2.921-.373l-.292-.034c-2.221-.224-4.501-.34-6.774-.343-.024 0-.087-.002-.111-.003l-.176.006c-.985.003-2.009.029-3.035.077l-.55.03c-.938.052-1.882.125-2.825.216l-.502.048c-1.058.111-2.104.245-3.105.396-13.084 1.998-25.121 7.678-34.896 16.439-.789.707-1.989.676-2.741-.067l-8.372-8.274c-.379-.374-.593-.884-.594-1.417-.002-.533.209-1.043.586-1.42l11.13-11.13-12.193-12.191-11.13 11.13c-.78.781-2.048.781-2.828 0l-12.639-12.639c-.572-.572-.743-1.432-.434-2.179.31-.748 1.039-1.235 1.848-1.235h10.875l.146-17.553h-45.58l.383 45.435h17.244l-.091-10.843c-.007-.812.478-1.547 1.227-1.861.747-.314 1.612-.144 2.187.431l12.639 12.638c.781.781.781 2.047 0 2.828l-11.13 11.131 12.194 12.194 11.131-11.13c.778-.778 2.039-.781 2.82-.008l9.875 9.764c.651.644.782 1.647.318 2.437-2.054 3.491-3.782 7.115-5.136 10.771l-.225.597c-.229.635-.441 1.278-.651 1.923-.181.547-.336 1.018-.481 1.493-.072.239-.14.485-.209.732l-.092.328c-.224.784-.439 1.564-.634 2.354-.002.011-.042.181-.044.192-1.284 5.264-1.934 10.654-1.934 16.023 0 9.846 2.093 19.363 6.22 28.286l.12.264c.39.833.797 1.657 1.22 2.472l.279.548c.388.732.794 1.453 1.208 2.169l.19.338c.068.122.135.244.206.364.515.867 1.051 1.726 1.591 2.548.261.399.535.79.809 1.182l.476.686c.158.23.315.458.478.684.358.496.731.982 1.105 1.469l.157.205c.211.276.422.553.639.825.386.484.781.962 1.181 1.436.287.342.577.679.869 1.013.393.449.79.895 1.197 1.335.322.348.651.69.98 1.031l.409.432c.159.17.317.34.483.506l.332.315c.305.301.617.594.93.886l.269.253c.612.575 1.231 1.139 1.86 1.688l.168.147c.448.391.895.782 1.354 1.16.268.22.54.432.814.645l.346.27c.477.376.925.729 1.383 1.071.331.248.667.486 1.003.726l.108.077c.526.377 1.052.746 1.586 1.105.312.209.627.417.945.622.66.429 1.324.841 1.995 1.245l.584.349c7.215 4.239 15.018 7.065 23.196 8.405.967.158 1.677.994 1.677 1.974v20.323c0 1.105-.896 2-2 2h-16.134v18.593h16.134c1.104 0 2 .895 2 2v24.924zm9.297-87.576c-12.567.001-25.13-4.782-34.697-14.349-1.76-1.76-3.396-3.665-4.863-5.661-.004-.006-.055-.077-.06-.083-.457-.625-.901-1.262-1.328-1.907l-.075-.117c-.442-.675-.843-1.315-1.227-1.964-6.47-11.006-8.398-23.855-5.481-36.266l.121-.522c.086-.349.183-.7.281-1.05l.138-.499c.088-.32.177-.64.274-.956l.202-.628c6.564-20.378 25.336-34.065 46.714-34.065 21.396 0 40.174 13.702 46.725 34.095l.058.178c.046.138.091.276.133.416.102.333.201.687.299 1.041l.113.411c.097.347.192.693.279 1.041l.134.582c2.9 12.39.973 25.213-5.429 36.113l-1.725-1.013 1.736.992-1.736-.992 1.724 1.015c-.011.02-.066.114-.077.133-.367.621-.763 1.252-1.173 1.877l-.13.202c-.407.617-.845 1.244-1.298 1.865l-.076.105c-1.465 1.994-3.1 3.896-4.859 5.656-9.565 9.566-22.133 14.349-34.697 14.35zm0-94.066c-19.635 0-36.877 12.572-42.904 31.285l-.187.577c-.086.283-.165.568-.244.854l-.14.504c-.087.312-.174.624-.251.939l-.11.479c-2.68 11.403-.91 23.207 4.986 33.235.397.674.765 1.261 1.146 1.842.006.009.055.085.06.094.425.645.833 1.229 1.255 1.807 1.399 1.906 2.902 3.656 4.52 5.274 17.573 17.572 46.166 17.57 63.738 0 1.617-1.617 3.119-3.365 4.465-5.196l.072-.102c.412-.564.814-1.141 1.2-1.725 0 0 .112-.175.113-.175.37-.566.734-1.146 1.081-1.732l1.786.905-1.725-1.013c5.879-10.01 7.648-21.791 4.984-33.172l-.123-.535c-.077-.311-.164-.622-.25-.933l-.117-.421c-.086-.314-.172-.628-.269-.938l-.172-.535c-6.015-18.732-23.262-31.318-42.914-31.318z" fill="#690589"/><path d="m70.675 125.578c-.952 0-1.795-.682-1.967-1.652-1.091-6.16-.757-12.21-.742-12.464.063-1.103 1.005-1.956 2.111-1.88 1.103.063 1.945 1.009 1.882 2.111-.003.058-.319 5.852.687 11.537.193 1.087-.533 2.125-1.621 2.318-.117.019-.235.03-.35.03z" fill="#690589"/></svg>
