<?xml version="1.0" encoding="utf-8"?>
<svg id="Capa_1" enable-background="new 0 0 512 512" height="512" viewBox="0 0 512 512" width="512" xmlns="http://www.w3.org/2000/svg"><path d="m512 256c0 29.92-5.13 58.64-14.57 85.33-11.24 31.8-28.58 60.72-50.62 85.34-46.88 52.37-115 85.33-190.81 85.33s-143.93-32.96-190.81-85.33c-22.04-24.62-39.38-53.54-50.62-85.34-9.44-26.69-14.57-55.41-14.57-85.33s5.13-58.64 14.57-85.33c11.24-31.8 28.58-60.72 50.62-85.34 46.88-52.37 115-85.33 190.81-85.33s143.93 32.96 190.81 85.33c22.04 24.62 39.38 53.54 50.62 85.34 9.44 26.69 14.57 55.41 14.57 85.33z" fill="#fc5692"/><path d="m497.43 170.67h-482.86c11.24-31.8 28.58-60.72 50.62-85.34h381.62c22.04 24.62 39.38 53.54 50.62 85.34z" fill="#f46d11"/><path d="m512 256h-512c0-29.92 5.13-58.64 14.57-85.33h482.86c9.44 26.69 14.57 55.41 14.57 85.33z" fill="#ffd833"/><path d="m512 256c0 29.92-5.13 58.64-14.57 85.33h-482.86c-9.44-26.69-14.57-55.41-14.57-85.33z" fill="#27ba9e"/><path d="m497.43 341.33c-11.24 31.8-28.58 60.72-50.62 85.34h-381.62c-22.04-24.62-39.38-53.54-50.62-85.34z" fill="#62b4fd"/><path d="m446.81 426.67c-46.88 52.37-115 85.33-190.81 85.33s-143.93-32.96-190.81-85.33z" fill="#9e74bc"/></svg>
