<?xml version="1.0" encoding="iso-8859-1"?>
<!-- Generator: Adobe Illustrator 19.0.0, SVG Export Plug-In . SVG Version: 6.00 Build 0)  -->
<svg version="1.1" id="Layer_1" xmlns="http://www.w3.org/2000/svg" xmlns:xlink="http://www.w3.org/1999/xlink" x="0px" y="0px"
	 viewBox="0 0 448 448" style="enable-background:new 0 0 448 448;" xml:space="preserve">
<g transform="translate(0 -1020.36)" shape-rendering="auto" image-rendering="auto" color-rendering="auto" color-interpolation="sRGB">
	<g>
		<path style="fill:#484666;" d="M143.938,1214.903c-0.26-0.014-0.521-0.014-0.781,0l0,0c-4.123,0.404-7.255,3.889-7.219,8.031
			v79.936h-87.97v-87.969H0v8.031v191.906h47.968v-64h352.094v64H448v-135.938h-47.938v7.906v16.061h-8.03v-31.998
			c-0.036-3.813-2.756-7.068-6.501-7.783l-240-48.094c-0.524-0.111-1.058-0.17-1.594-0.176L143.938,1214.903z"/>
		<path style="fill:#DBAE96;" d="M15.938,1230.903h16.094v72.031v47.969v48.063H15.938V1230.903z"/>
		<path style="fill:#36D7B7;" d="M152.032,1232.653l223.906,44.906v25.375H152.032V1232.653z"/>
		<g>
			<path style="fill:#DBAE96;" d="M416,1294.903h16.062v104.063H416V1294.903z"/>
			<path style="fill:#DBAE96;" d="M47.968,1318.903h352.094v16.063H47.968L47.968,1318.903z"/>
		</g>
	</g>
	<path style="fill:#484666;" d="M88,1238.926c-13.161,0-23.977,10.816-23.976,23.979c0,13.16,10.816,23.977,23.976,23.977
		s23.976-10.816,23.976-23.977C111.977,1249.742,101.161,1238.926,88,1238.926z"/>
	<path style="fill:#FABD6B;" d="M88,1254.99c4.513,0,8.032,3.398,8.031,7.914c0,4.51-3.518,8.031-8.031,8.031
		c-4.513,0-8.031-3.518-8.031-8.031C79.968,1258.393,83.486,1254.99,88,1254.99z"/>
	<path style="fill:#484666;" d="M103.945,1182.944c-13.16,0-23.976,10.816-23.976,23.979c0,13.16,10.816,23.977,23.976,23.977
		s24.095-10.816,24.094-23.977C128.039,1193.76,117.105,1182.944,103.945,1182.944z"/>
	<path style="fill:#DC9A5C;" d="M103.945,1198.889c4.513,0,8.031,3.518,8.031,8.031c0,4.51-3.518,8.031-8.031,8.031
		c-4.513,0-7.913-3.518-7.913-8.031C96.032,1202.408,99.432,1198.889,103.945,1198.889z"/>
	<path style="fill:#484666;" d="M81.74,1103.692c-9.043-9.023-23.925-7.947-32.953,1.072c-6.93,6.92-6.181,12.385-6.496,16.418
		c-4.095,0.24-9.238-0.545-16.063,6.26c-9.027,9.012-10.108,23.809-1.063,32.836c5.038,5.02,11.595,6.172,17.126,6.141
		c12.434,0,37.913,0.48,37.913,0.48l8.15,0.16v-8.148c0,0,0.025-26.568-0.354-40.039c-0.154-5.473-2.158-11.004-6.26-15.119
		L81.74,1103.692z"/>
	<path style="fill:#D87070;" d="M70.402,1115.03c0.92,0.928,1.598,2.293,1.654,4.252c0.288,10.254,0.223,24.227,0.236,31.535
		c-7.211-0.16-19.885-0.367-30-0.367h-0.118c-3.178,0-4.949-0.703-5.787-1.535c-2.292-2.287-2.418-6.684,1.063-10.156
		c3.224-3.217,10.512-3.781,10.512-3.781h7.913l0.118-7.914c0,0,0.909-7.764,4.134-10.984c3.479-3.471,7.986-3.35,10.276-1.057
		L70.402,1115.03z"/>
	<path style="fill:#484666;" d="M108.079,1095.307c-0.379,13.473-0.354,40.039-0.354,40.039v8.15l8.15-0.16
		c0,0,25.479-0.545,37.913-0.48c5.531,0,12.088-1.119,17.126-6.143c9.045-9.025,7.964-23.822-1.063-32.834
		c-6.766-6.75-12.26-7.027-15.709-7.678c-0.997-8.133-3.241-11.336-6.969-15c-9.028-9.01-23.791-10.088-32.835-1.072
		c-4.631,4.379-5.865,8.527-6.259,15.176L108.079,1095.307z"/>
	<path style="fill:#D87070;" d="M125.677,1091.526c2.29-2.285,6.797-2.406,10.276,1.072c3.798,3.791,4.488,9.92,4.488,9.92
		l0.472,6.379l6.378,0.943c0,0,7.24,1.584,11.102,5.195c0.083,0,0.157,0,0.236,0.16v0.16c3.48,3.477,3.355,7.871,1.063,10.156
		c-0.838,0.832-2.727,1.553-5.905,1.535c-10.115,0-22.789,0.16-30,0.24c0.014-7.371-0.051-21.201,0.236-31.418
		c0.055-1.967,0.733-3.332,1.654-4.252L125.677,1091.526z"/>
	<path style="fill:#37B89E;" d="M152.031,1232.653v1.6l216.031,43.313v25.377h7.875v-25.377L152.031,1232.653z"/>
	<g>
		<path style="fill:#BD5858;" d="M130.375,1089.903c-1.046,0-2.029,0.16-2.906,0.496c1.258,0.416,2.506,1.039,3.656,2.188
			c3.798,3.791,4.5,9.906,4.5,9.906l0.469,6.406l6.375,0.943c0,0,7.262,1.568,11.125,5.188c0.083,0,0.138,0,0.219,0.16v0.16
			c3.48,3.477,3.354,7.869,1.063,10.156c-0.838,0.832-2.728,1.553-5.906,1.535c-8.492,0-17.835,0.16-25.188,0.225c0,0.008,0,0,0,0
			c7.211-0.16,19.885-0.287,30-0.256c3.178,0,5.068-0.688,5.906-1.535c2.292-2.287,2.418-6.678-1.063-10.156v-0.16
			c-0.08-0.16-0.136,0-0.219-0.16c-3.863-3.615-11.125-5.188-11.125-5.188l-6.375-0.943l-0.469-6.406c0,0-0.702-6.113-4.5-9.906
			c-1.74-1.736-3.715-2.57-5.562-2.688L130.375,1089.903z"/>
		<path style="fill:#BD5858;" d="M65.719,1113.405c-0.752,0-1.539,0.287-2.312,0.592c0.623,0.271,1.221,0.561,1.687,1.023
			c0.92,0.928,1.601,2.291,1.656,4.25c0.288,10.234,0.236,24.148,0.25,31.469c1.564,0,4.012,0,5.281,0
			c-0.014-7.309,0.07-21.277-0.219-31.531c-0.055-1.959-0.736-3.324-1.656-4.25c-1.145-1.137-2.84-1.742-4.688-1.623V1113.405z"/>
	</g>
	<g>
		<path style="fill:#C89F8B;" d="M24.156,1230.903v72.031v47.969v48.063h7.875v-48.063v-47.969v-72.031H24.156z"/>
		<path style="fill:#C89F8B;" d="M424.125,1294.903l0.062,56v48.063h7.875v-48.063l-0.062-56H424.125z"/>
		<path style="fill:#C89F8B;" d="M392.031,1318.903v16.063h8.031v-16.063H392.031z"/>
	</g>
	<path style="fill:#E0A45C;" d="M88,1254.996c-0.681,0-1.28,0.191-1.906,0.336c3.529,0.832,6.125,3.73,6.125,7.563
		c0,3.83-2.597,6.803-6.125,7.656c0.627,0.16,1.225,0.385,1.906,0.385c4.513,0,8.031-3.52,8.031-8.031
		c0-4.516-3.518-7.906-8.031-7.906V1254.996z"/>
	<path style="fill:#BC8756;" d="M103.945,1198.948c-0.681,0-1.28,0.176-1.906,0.367c3.529,0.832,6.125,3.73,6.125,7.563
		c0,3.828-2.597,6.803-6.125,7.656c0.627,0.16,1.225,0.367,1.906,0.367c4.513,0,8.031-3.518,8.031-8.031
		c0-4.518-3.518-7.906-8.031-7.906V1198.948z"/>
</g>
<g>
</g>
<g>
</g>
<g>
</g>
<g>
</g>
<g>
</g>
<g>
</g>
<g>
</g>
<g>
</g>
<g>
</g>
<g>
</g>
<g>
</g>
<g>
</g>
<g>
</g>
<g>
</g>
<g>
</g>
</svg>
